# xmcd
#
# Track frame offsets: 
#        150
#        14977
#        29342
#        41162
#        50825
#        61655
#        72092
#        83400
#        92335
#        103557
#        115795
#        128080
#        142370
#        156587
#
# Disc length: 2221 seconds
#
# Revision: 1
# Processed by: cddbd v1.5.2PL0 Copyright (c) Steve Scherf et al.
# Submitted via: ExactAudioCopy v1.1
#
DISCID=c208ab0e
DTITLE=Various Artist - Spotlite On Gotham Records - Volume 1
DYEAR=1995
DGENRE=R&B
TTITLE0=The Capris - God Only Knows (mono)
TTITLE1=The Whispers - Fool Heart (mono)
TTITLE2=Lee Andrews and The Hearts - Blue Bird Of Happiness (mono)
TTITLE3=The Capris - Let's Linger Awhile (mono)
TTITLE4=The Ballenaires - The Bells Are Ringing (mono)
TTITLE5=The Cap-Tans - I Love You So (mono)
TTITLE6=The Gazelles - Pretty Baby, Baby (mono)
TTITLE7=The Dreamers - I Need A Girl (mono)
TTITLE8=The Whispers - We're Getting Married (mono)
TTITLE9=Lee Andrews and The Hearts - Lonely Room (mono)
TTITLE10=The Capris - He Still Loves Me (mono)
TTITLE11=The Kings - I'm A Little Liar (mono)
TTITLE12=The Gazelles - Honest (alt) (mono)
TTITLE13=Lee Andrews and The Hearts - It's Me (mono)
EXTD=
EXTT0=
EXTT1=
EXTT2=
EXTT3=
EXTT4=
EXTT5=
EXTT6=
EXTT7=
EXTT8=
EXTT9=
EXTT10=
EXTT11=
EXTT12=
EXTT13=
PLAYORDER=
